<?xml version="1.0" standalone="no"?><!DOCTYPE svg PUBLIC "-//W3C//DTD SVG 1.1//EN" "http://www.w3.org/Graphics/SVG/1.1/DTD/svg11.dtd"><svg t="1550566712360" class="icon" style="" viewBox="0 0 1024 1024" version="1.1" xmlns="http://www.w3.org/2000/svg" p-id="1777" xmlns:xlink="http://www.w3.org/1999/xlink" width="128" height="128"><defs><style type="text/css"></style></defs><path d="M934.4 910.6H546c-13.3 0-24 10.7-24 24s10.7 24 24 24h388.4c13.3 0 24-10.7 24-24s-10.7-24-24-24zM920.3 103.1c-25.6-25.6-59-38.3-92.5-38.3s-66.9 12.8-92.5 38.3L71 766.8c-4.5 4.5-7 10.6-7 17v151.1c0 13.3 10.7 24 24 24h151c6.4 0 12.5-2.5 17-7l664.2-663.7c51.1-51.2 51.1-134 0.1-185.1zM229.2 910.9H111.9V793.6l548.4-547.9 117 117.4-548.1 547.8z m657.2-656.8l-75.1 75.1-117-117.4 74.9-74.8c15.7-15.7 36.4-24.3 58.6-24.3 22.2 0 42.9 8.6 58.6 24.3 15.7 15.7 24.3 36.4 24.3 58.6 0 22.2-8.6 42.9-24.3 58.5zM935 719.1H679.2c-13.3 0-24 10.7-24 24s10.7 24 24 24h255.9c13.2 0 23.9-10.7 23.9-24s-10.7-24-24-24z" p-id="1778" fill="#ffffff"></path></svg>