<?xml version="1.0" standalone="no"?><!DOCTYPE svg PUBLIC "-//W3C//DTD SVG 1.1//EN" "http://www.w3.org/Graphics/SVG/1.1/DTD/svg11.dtd"><svg t="1555385479363" class="icon" style="" viewBox="0 0 1024 1024" version="1.1" xmlns="http://www.w3.org/2000/svg" p-id="3235" xmlns:xlink="http://www.w3.org/1999/xlink" width="128" height="128"><defs><style type="text/css"></style></defs><path d="M513.354736 969.810549c-31.429882 0-61.775975-15.534309-83.090492-42.448404l-59.066502-74.962074c-25.288411-32.152408-83.451755-60.330923-124.274475-60.330923H131.680367c-69.181866 0-125.358264-56.176398-125.358264-125.358264V216.215911c0-69.181866 56.176398-125.358264 125.358264-125.358264h763.52937c69.181866 0 125.358264 56.176398 125.358264 125.358264V666.530252c0 69.181866-56.176398 125.358264-125.358264 125.358264h-115.423531c-40.82272 0-98.986065 28.178515-124.274476 60.330923l-59.066502 74.962074c-21.314518 27.094726-51.66061 42.629035-83.090492 42.629036zM131.680367 156.246252c-33.055565 0-59.96966 26.914094-59.96966 59.969659V666.530252c0 33.055565 26.914094 59.96966 59.96966 59.96966h115.423531c60.872817 0 138.00247 37.390721 175.754454 85.25807l59.066502 74.962074c8.850944 11.379785 20.230729 17.521256 31.610514 17.521256 11.560416 0 22.75957-6.322103 31.610513-17.521256l59.066502-74.962074c37.571353-47.867349 114.881637-85.25807 175.754454-85.25807h115.423532c33.055565 0 59.96966-26.914094 59.969659-59.96966V216.215911c0-33.055565-26.914094-59.96966-59.969659-59.969659H131.680367z" p-id="3236" fill="#666666"></path></svg>