<?xml version="1.0" standalone="no"?><!DOCTYPE svg PUBLIC "-//W3C//DTD SVG 1.1//EN" "http://www.w3.org/Graphics/SVG/1.1/DTD/svg11.dtd"><svg t="1555385373567" class="icon" style="" viewBox="0 0 1024 1024" version="1.1" xmlns="http://www.w3.org/2000/svg" p-id="2403" xmlns:xlink="http://www.w3.org/1999/xlink" width="128" height="128"><defs><style type="text/css"></style></defs><path d="M389.269771 577.044412c0 51.395554-15.103999 93.108584-33.748638 93.108584-18.634406 0-33.737382-41.712007-33.737382-93.108584 0-51.424206 15.103999-93.108584 33.737382-93.108584C374.166795 483.935828 389.269771 525.620206 389.269771 577.044412z" p-id="2404"></path><path d="M705.821357 577.044412c0 51.395554-15.116279 93.108584-33.748638 93.108584-18.644639 0-33.737382-41.712007-33.737382-93.108584 0-51.424206 15.092743-93.108584 33.737382-93.108584C690.704055 483.935828 705.821357 525.620206 705.821357 577.044412z" p-id="2405"></path><path d="M512.64059 125.505435c-212.107839 0-384.049886 171.905208-384.049886 384.039653 0 212.081233 171.942047 384.036583 384.049886 384.036583 212.094536 0 384.024304-171.95535 384.024304-384.036583C896.664893 297.410644 724.735126 125.505435 512.64059 125.505435zM512.64059 849.365634c-157.746744 0-289.984511-107.625206-328.310398-253.330706-18.503423-141.797493 70.043263-160.27738 70.043263-160.27738 51.677986 6.186909 47.537689 47.537689 47.537689 47.537689 70.28681-37.186947 57.889455-101.286848 57.889455-101.286848 84.764546-6.210445 76.497255 86.847997 76.497255 86.847997 86.834694-24.818245 76.507488-122.014938 76.507488-122.014938 90.949408 22.74605 43.397393 132.313491 43.397393 132.313491 119.90795-30.976502 119.90795-99.242282 119.90795-99.242282 76.480882 45.520753 47.564295 113.710808 47.564295 113.710808 43.408649-8.257058 64.086597-43.423999 64.086597-43.423999 44.431955 14.543228 59.153238 58.731636 61.199851 105.607246C826.315662 721.525014 684.582637 849.365634 512.64059 849.365634z" p-id="2406"></path></svg>