<?xml version="1.0" standalone="no"?><!DOCTYPE svg PUBLIC "-//W3C//DTD SVG 1.1//EN" "http://www.w3.org/Graphics/SVG/1.1/DTD/svg11.dtd"><svg t="1555312787992" class="icon" style="" viewBox="0 0 1024 1024" version="1.1" xmlns="http://www.w3.org/2000/svg" p-id="2212" xmlns:xlink="http://www.w3.org/1999/xlink" width="128" height="128"><defs><style type="text/css"></style></defs><path d="M510.4 145.6c-202.6 0-366.8 159.6-366.8 356.5 0 102.1 44.3 194.2 115 259.2-15.6 23.3-34.4 44.1-56.2 61.4 1.1-0.2 1.7-0.2 1.3 0-7.8 5.3-13.1 14.4-13.1 24.7 0 13.2 8.6 24 20.3 27.9 14.6 2.2 29.4 3.7 44.7 3.7 18.5 0 36.5-1.9 54.2-5h0.1c10.8-2 21.4-4.3 31.7-7.2 26.7-8.2 53.5-20.2 53.5-20.2l8.3-3.8c17.3 6.9 41.1 10.7 60.8 12.8v-0.1c5.5 0.7 10.9 1.1 16.4 1.6 12.4 0.9 20.8 1.1 20.8 1.1v0.1c2.9 0.1 5.9 0.3 8.9 0.3 202.6 0 366.8-159.6 366.8-356.5 0.1-197-164.2-356.5-366.7-356.5z" p-id="2213" fill="#666666"></path></svg>