<?xml version="1.0" standalone="no"?><!DOCTYPE svg PUBLIC "-//W3C//DTD SVG 1.1//EN" "http://www.w3.org/Graphics/SVG/1.1/DTD/svg11.dtd"><svg t="1550805641094" class="icon" style="" viewBox="0 0 1091 1024" version="1.1" xmlns="http://www.w3.org/2000/svg" p-id="3040" xmlns:xlink="http://www.w3.org/1999/xlink" width="136.375" height="128"><defs><style type="text/css"></style></defs><path d="M545.901727-6.34913734a300.183426 300.183426 0 0 0-185.834452 536.106341A552.015159 552.015159 0 0 0 0.625237 961.44889766a48.629576 48.629576 0 0 0 40.154136 55.576659 49.602168 49.602168 0 0 0 7.850203 0.625237 48.629576 48.629576 0 0 0 47.795926-40.779373 453.088707 453.088707 0 0 1 449.545696-382.089526A300.391839 300.391839 0 0 0 545.901727-6.34913734z m0 503.802409a203.41057 203.41057 0 1 1 203.41057-203.41057 203.618982 203.618982 0 0 1-203.41057 203.41057zM1091.178216 961.44889766A551.459393 551.459393 0 0 0 833.649876 578.24783866a48.629576 48.629576 0 1 0-50.57476 82.670279 454.686536 454.686536 0 0 1 212.441777 315.953303 48.629576 48.629576 0 0 0 47.795926 40.779373 49.602168 49.602168 0 0 0 7.780732-0.625237 48.629576 48.629576 0 0 0 40.084665-55.576659z" p-id="3041" fill="#707070"></path></svg>