<?xml version="1.0" standalone="no"?><!DOCTYPE svg PUBLIC "-//W3C//DTD SVG 1.1//EN" "http://www.w3.org/Graphics/SVG/1.1/DTD/svg11.dtd"><svg t="1550823836829" class="icon" style="" viewBox="0 0 1024 1024" version="1.1" xmlns="http://www.w3.org/2000/svg" p-id="6182" xmlns:xlink="http://www.w3.org/1999/xlink" width="128" height="128"><defs><style type="text/css"></style></defs><path d="M917.824 357.056c-22.208-30.272-53.184-65.728-87.168-99.712s-69.44-64.96-99.712-87.168c-51.584-37.824-76.608-42.176-90.944-42.176l-368 0c-44.096 0-80 35.904-80 80l0 736c0 44.096 35.904 80 80 80l608 0c44.096 0 80-35.904 80-80l0-496c0-14.336-4.352-39.36-42.176-90.944zM785.344 302.656c30.72 30.72 54.784 58.368 72.576 81.344l-153.984 0 0-153.92c22.976 17.792 50.688 41.856 81.344 72.576l0 0zM896 944c0 8.704-7.296 16-16 16l-608 0c-8.704 0-16-7.296-16-16l0-736c0-8.64 7.296-16 16-16 0 0 367.936 0 368 0l0 224c0 17.664 14.336 32 32 32l224 0 0 496z" p-id="6183" fill="#e6e6e6"></path><path d="M602.944 42.176c-51.584-37.824-76.608-42.176-90.944-42.176l-368 0c-44.096 0-80 35.904-80 80l0 736c0 38.656 27.52 70.976 64 78.4l0-814.4c0-8.64 7.36-16 16-16l486.848 0c-9.664-7.936-19.008-15.232-27.968-21.824z" p-id="6184" fill="#e6e6e6"></path></svg>