<?xml version="1.0" standalone="no"?><!DOCTYPE svg PUBLIC "-//W3C//DTD SVG 1.1//EN" "http://www.w3.org/Graphics/SVG/1.1/DTD/svg11.dtd"><svg t="1550487579000" class="icon" style="" viewBox="0 0 1024 1024" version="1.1" xmlns="http://www.w3.org/2000/svg" p-id="1996" xmlns:xlink="http://www.w3.org/1999/xlink" width="128" height="128"><defs><style type="text/css"></style></defs><path d="M118.10529188033831 764.4966078398261c7.574897834750945 12.624830184865184 22.72469488509366 15.149797050342714 35.34952506995885 7.574897834750945s15.149797050342714-22.72469488509366 7.574897834750945-35.34952506995885c-42.92442290470979-65.64911778980346-65.64911778980346-143.92306576447208-65.64911778980346-224.72198060461824 0-229.77191295473253 186.84749005002274-416.6194030047552 416.6194030047552-416.6194030047552S928.6194030047552 282.22808704526744 928.6194030047552 512 741.7719129547326 928.6194030047552 512 928.6194030047552c-108.57354069451323 0-209.57218493511638-40.399457420073084-287.84613290978496-116.14843991010503-10.099864700228474-10.099864700228474-25.249660369730368-10.099864700228474-35.34952506995885 0-10.099864700228474 10.099864700228474-10.099864700228474 25.249660369730368 0 35.34952506995885 88.37381267489712 83.32388032478289 201.9972857195246 131.2982355796069 323.19565797974377 131.2982355796069 257.54654018994034 0 467.1187237442159-209.57218493511638 467.1187237442159-467.1187237442159S769.5465401899403 44.88127625578409 512 44.88127625578409 44.88127625578409 254.4534598100597 44.88127625578409 512c0 88.37381267489712 25.249660369730368 176.74762534979425 73.2240156245544 252.49660783982617z" fill="#1e87f0" p-id="1997"></path><path d="M249.4035274599454 512c0 15.149797050342714 10.099864700228474 25.249660369730368 25.24966175057119 25.249660369730368H688.7476253497941l-159.07286281481484 159.07286281481484c-10.099864700228474 10.099864700228474-10.099864700228474 25.249660369730368 0 35.34952506995885 5.049932350114237 5.049932350114237 12.624830184865184 7.574897834750945 17.674762534979426 7.574899215591769s12.624830184865184-2.524965484636708 17.674762534979426-7.574899215591769l201.9972857195246-201.9972857195246c2.524965484636708-2.524965484636708 5.049932350114237-5.049932350114237 5.049932350114237-7.574897834750945 2.524965484636708-2.524965484636708 2.524965484636708-7.574897834750945 2.524966865477531-10.099864700228474s0-7.574897834750945-2.524966865477531-10.099864700228474c-2.524965484636708-2.524965484636708-2.524965484636708-5.049932350114237-5.049932350114237-7.574897834750945l-201.9972857195246-201.9972857195246c-10.099864700228474-10.099864700228474-25.249660369730368-10.099864700228474-35.34952506995885 0s-10.099864700228474 25.249660369730368 0 35.34952506995885L688.7476253497941 486.75033963026965H274.6531892105166c-15.149797050342714 0-25.249660369730368 12.624830184865184-25.24966175057119 25.249660369730368z" fill="#1e87f0" p-id="1998"></path></svg>