<?xml version="1.0" standalone="no"?><!DOCTYPE svg PUBLIC "-//W3C//DTD SVG 1.1//EN" "http://www.w3.org/Graphics/SVG/1.1/DTD/svg11.dtd"><svg t="1550547215171" class="icon" style="" viewBox="0 0 1024 1024" version="1.1" xmlns="http://www.w3.org/2000/svg" p-id="2550" xmlns:xlink="http://www.w3.org/1999/xlink" width="128" height="128"><defs><style type="text/css"></style></defs><path d="M890.88 141.312l-96.256 755.712c0 8.192-2.048 8.192-10.24 4.096l-210.944-122.88c-10.24-6.144-22.528-2.048-28.672 8.192-6.144 10.24-2.048 22.528 8.192 28.672l210.944 122.88c32.768 18.432 65.536 2.048 71.68-34.816l102.4-798.72c4.096-38.912-26.624-61.44-61.44-43.008l-778.24 411.648c-34.816 18.432-34.816 55.296-2.048 75.776l169.984 102.4c10.24 6.144 22.528 2.048 28.672-6.144 6.144-10.24 2.048-22.528-6.144-28.672l-169.984-102.4c-6.144-4.096-6.144-2.048 0-4.096l739.328-391.168-458.752 589.824v231.424c0 12.288 8.192 20.48 20.48 20.48s20.48-8.192 20.48-20.48v-219.136l450.56-579.584z" p-id="2551" fill="#1e87f0"></path></svg>