<svg width="25" height="20" viewBox="0 0 25 20" version="1.1" xmlns="http://www.w3.org/2000/svg" xmlns:xlink="http://www.w3.org/1999/xlink">
    <g id="Page-1" stroke="none" stroke-width="1" fill="none" fill-rule="evenodd">
        <g id="jianmo" fill="#000000" fill-rule="nonzero">
            <path d="M17.6454808,7.32920139 L17.6454808,19.3712153 C17.6454284,19.7025089 17.3768471,19.9710476 17.0455535,19.9710476 L14.7458799,19.9710476 C14.4145862,19.9710476 14.146005,19.7025089 14.1459526,19.3712153 L14.1459526,6.09783672 C14.1459526,5.14522323 13.3624691,4.37303401 12.3960936,4.37303398 C11.4297181,4.37303396 10.6463295,5.14522321 10.6463295,6.09783672 L10.5963118,12.7719206 L10.5963118,14.7854401 C10.5963118,17.6409078 8.27974416,19.9556722 5.42199862,19.9556722 C2.56425308,19.9556722 0.247590476,17.6408129 0.247590476,14.7854401 L0.247590476,14.5563269 C0.247642893,14.2250333 0.516224123,13.9564946 0.847517733,13.9564946 L3.09726866,13.9564946 C3.42856227,13.9564946 3.6971435,14.2250333 3.69719591,14.5563269 L3.69719591,14.7854401 C3.69719591,15.7371994 4.46938514,16.5088191 5.42199862,16.5088191 C6.37451719,16.5088191 7.14680133,15.7371994 7.14680133,14.7854401 L7.14680133,6.09783672 C7.14680133,3.24009118 9.49696722,0.923428571 12.3960936,0.923428571 C14.2083086,0.923428571 15.8060266,1.82858697 16.7493389,3.20525913 C17.3996634,2.72786092 18.3819838,2.42319924 19.4452625,2.42319924 C22.228029,2.42319924 24.5445967,4.73976693 24.5445967,7.52272324 L24.5445967,19.3712153 C24.5445443,19.7024718 24.2760209,19.9709952 23.9447644,19.9710476 L21.6950134,19.9710476 C21.3637198,19.9710476 21.0951386,19.7025089 21.0950862,19.3712153 L21.0950862,7.52262835 C21.0950862,6.644899 20.322802,5.87270976 19.4452625,5.87280468 C18.41767,5.87270976 17.6454808,6.644899 17.6454808,7.52262835 L17.6454808,7.32920139 Z" id="Shape"></path>
        </g>
    </g>
</svg>