<svg width="19" height="20" viewBox="0 0 19 20" version="1.1" xmlns="http://www.w3.org/2000/svg" xmlns:xlink="http://www.w3.org/1999/xlink">
    <g id="Page-1" stroke="none" stroke-width="1" fill="none" fill-rule="evenodd">
        <g id="QQ" fill="#000000" fill-rule="nonzero">
            <path d="M0.62390625,11.54 C-0.08609375,13.31 -0.19609375,14.99 0.37390625,15.3 C0.76390625,15.52 1.38390625,15.02 1.96390625,14.12 C2.19390625,15.11 2.75390625,15.99 3.56390625,16.71 C2.71390625,17.04 2.16390625,17.58 2.16390625,18.19 C2.16390625,19.19 3.66390625,20 5.50390625,20 C7.17390625,20 8.55390625,19.34 8.80390625,18.48 L9.20390625,18.48 C9.46390625,19.35 10.8439062,20 12.5139063,20 C14.3639063,20 15.8539063,19.19 15.8539063,18.19 C15.8539063,17.58 15.3039063,17.05 14.4539063,16.71 C15.2639063,15.99 15.8239063,15.11 16.0539063,14.12 C16.6339063,15.02 17.2439063,15.52 17.6439063,15.3 C18.2139063,14.99 18.1039063,13.31 17.3839063,11.54 C16.8239063,10.16 16.0739063,9.14 15.4939063,8.91 C15.5039063,8.83 15.5039063,8.73 15.5039063,8.64 C15.5039063,8.11 15.3639063,7.61 15.1139063,7.21 L15.1139063,7.12 C15.1139063,6.87 15.0539063,6.64 14.9639063,6.45 C14.8239063,2.86 12.6039062,0 9.00390625,0 C5.40390625,0 3.18390625,2.86 3.03390625,6.45 C2.94390625,6.65 2.88390625,6.88 2.88390625,7.13 L2.88390625,7.22 C2.64390625,7.62 2.50390625,8.11 2.50390625,8.65 C2.50390625,8.74 2.50390625,8.83 2.51390625,8.92 C1.94390625,9.15 1.18390625,10.16 0.62390625,11.54 Z" id="Shape"></path>
        </g>
    </g>
</svg>