<svg width="24" height="20" viewBox="0 0 24 20" version="1.1" xmlns="http://www.w3.org/2000/svg" xmlns:xlink="http://www.w3.org/1999/xlink">
    <g id="Page-1" stroke="none" stroke-width="1" fill="none" fill-rule="evenodd">
        <g id="weixin" fill="#000000" fill-rule="nonzero">
            <path d="M15.9296219,5.80094538 C16.2001051,5.80094538 16.4653361,5.82195378 16.7305672,5.85084034 C16.0110294,2.49474789 12.4238446,0.00262605042 8.32720588,0.00262605042 C3.75,0.00262605042 0,3.12237395 0,7.08508404 C0,9.37237395 1.24737395,11.25 3.33245799,12.707458 L2.5,15.2127101 L5.40966387,13.752626 C6.45220588,13.960084 7.28728992,14.1701681 8.32720588,14.1701681 C8.58718487,14.1701681 8.84716387,14.1570378 9.10451681,14.1360294 C8.94170168,13.5793067 8.84716387,12.9963235 8.84716387,12.3923319 C8.84978992,8.75262605 11.9721639,5.80094538 15.9296219,5.80094538 Z M11.4522059,3.54254201 C12.0798319,3.54254201 12.4947479,3.95483193 12.4947479,4.58245799 C12.4947479,5.20745799 12.0798319,5.625 11.4522059,5.625 C10.8272059,5.625 10.2022059,5.20745799 10.2022059,4.58245799 C10.1995798,3.95483193 10.8272059,3.54254201 11.4522059,3.54254201 Z M5.62237395,5.625 C4.99737395,5.625 4.36712185,5.20745799 4.36712185,4.58245799 C4.36712185,3.95483193 4.99737395,3.54254201 5.62237395,3.54254201 C6.24737395,3.54254201 6.66228992,3.95483193 6.66228992,4.58245799 C6.66228992,5.20745799 6.24737395,5.625 5.62237395,5.625 Z" id="Shape"></path>
            <path d="M23.5294118,12.292542 C23.5294118,8.96271008 20.1969538,6.25 16.4548319,6.25 C12.4921219,6.25 9.37237395,8.96271008 9.37237395,12.292542 C9.37237395,15.627626 12.4921219,18.335084 16.4548319,18.335084 C17.2846639,18.335084 18.122374,18.125 18.9548319,17.917542 L21.2394958,19.167542 L20.6144958,17.0877101 C22.2846639,15.832458 23.5294118,14.1701681 23.5294118,12.292542 Z M14.1596639,11.25 C13.7447479,11.25 13.3272059,10.8377101 13.3272059,10.417542 C13.3272059,10.002626 13.7447479,9.58508404 14.1596639,9.58508404 C14.789916,9.58508404 15.2022059,10.002626 15.2022059,10.417542 C15.2022059,10.8377101 14.789916,11.25 14.1596639,11.25 Z M18.7394958,11.25 C18.3272059,11.25 17.9122899,10.8377101 17.9122899,10.417542 C17.9122899,10.002626 18.3272059,9.58508404 18.7394958,9.58508404 C19.3644958,9.58508404 19.7820378,10.002626 19.7820378,10.417542 C19.7820378,10.8377101 19.3644958,11.25 18.7394958,11.25 Z" id="Shape"></path>
        </g>
    </g>
</svg>