<svg width="20" height="20" viewBox="0 0 20 20" version="1.1" xmlns="http://www.w3.org/2000/svg" xmlns:xlink="http://www.w3.org/1999/xlink">
    <g id="Page-1" stroke="none" stroke-width="1" fill="none" fill-rule="evenodd">
        <g id="wxapp" fill="#000000" fill-rule="nonzero">
            <path d="M10,20 C4.4775,20 0,15.5225 0,10 C0,4.4775 4.4775,0 10,0 C15.5225,0 20,4.4775 20,10 C20,15.5225 15.5225,20 10,20 Z M7.04416666,15.8333333 C8.01734477,15.838208 8.95326012,15.4594706 9.64916666,14.7791667 C10.3133374,14.1383599 10.7072004,13.2677467 10.75,12.3458333 L10.755,12.3458333 L10.755,6.985 C10.755,5.78916666 11.7416667,4.81833334 12.9558333,4.81833334 C14.17,4.81833334 15.1558333,5.78916668 15.1558333,6.985 C15.1558333,8.18083332 14.17,9.15166666 12.9558333,9.15166666 C12.5413413,9.14889321 12.2028337,9.48218153 12.1991667,9.89666666 C12.1991667,10.3083333 12.5408333,10.6416667 12.9558333,10.6416667 C15.0016667,10.6416667 16.6666667,9.00166666 16.6666667,6.9875 C16.6666666,4.97333334 15.0016667,3.33333334 12.9558333,3.33333334 C11.9809221,3.33085187 11.0439981,3.71118731 10.3466667,4.3925 C9.68173933,5.03579179 9.28917274,5.90981923 9.25,6.83416666 L9.245,6.83416666 L9.245,12.1816667 C9.245,13.3775 8.25833334,14.3483333 7.04416666,14.3483333 C5.82999998,14.3483334 4.84416666,13.3775 4.84416666,12.1816667 C4.84416666,10.9858333 5.83,10.015 7.04416666,10.015 C7.24336793,10.0167751 7.43509154,9.93922751 7.5770438,9.79946395 C7.71899605,9.65970039 7.79951319,9.4692048 7.80083334,9.27 C7.79716634,8.85551487 7.45865873,8.52222655 7.04416666,8.525 C4.99833334,8.525 3.33333334,10.165 3.33333334,12.1791667 C3.33333334,14.1933333 4.99833334,15.8333333 7.04416666,15.8333333 Z" id="Shape"></path>
        </g>
    </g>
</svg>