<?xml version="1.0" encoding="UTF-8"?>
<svg width="240px" height="240px" viewBox="0 0 240 240" version="1.1" xmlns="http://www.w3.org/2000/svg" xmlns:xlink="http://www.w3.org/1999/xlink">
    <!-- Generator: Sketch 49.3 (51167) - http://www.bohemiancoding.com/sketch -->
    <title>Untitled</title>
    <desc>Created with Sketch.</desc>
    <defs>
        <linearGradient x1="0%" y1="0%" x2="94.9779573%" y2="98.1126435%" id="linearGradient-1">
            <stop stop-color="#00D4FF" offset="0%"></stop>
            <stop stop-color="#3385FF" offset="100%"></stop>
        </linearGradient>
    </defs>
    <g id="Page-1" stroke="none" stroke-width="1" fill="none" fill-rule="evenodd">
        <g id="CMS" fill-rule="nonzero">
            <rect id="Rectangle-2-Copy-4" fill="url(#linearGradient-1)" x="0" y="0" width="240" height="240" rx="72"></rect>
            <path d="M148,95.710449 C148,110.885905 148,145.649089 148,176 C148,178.209139 146.209139,180 144,180 L128.666667,180 C126.457528,180 124.666667,178.209139 124.666667,176 L124.666667,87.5 C124.666667,81.148725 119.443322,76 113,76 C106.556678,76 101.333333,81.148725 101.333333,87.5 L101,132 L101,145.424466 C101,164.463227 85.553824,179.897193 66.5,179.897193 C47.4461761,179.897193 32,164.463227 32,145.424466 L32,143.897193 C32,141.688054 33.790861,139.897193 36,139.897193 L51,139.897193 C53.209139,139.897193 55,141.688054 55,143.897193 L55,145.424466 C55,151.770719 60.148725,156.915375 66.5,156.915375 C72.851275,156.915375 78,151.770719 78,145.424466 L78,131.897193 L78,87.5 C78,68.446176 93.670034,53 113,53 C125.082646,53 135.735296,59.0350784 142.024763,68.213952 C146.360775,65.030392 152.9104,63 160,63 C178.553824,63 194,78.445424 194,97 L194,176 C194,178.209139 192.209139,180 190,180 L175,180 C172.790861,180 171,178.209139 171,176 L171,97 C171,91.147355 165.851275,85.99888 160,86 C153.148725,85.99888 148,91.147355 148,97 L148,95.710449 Z" id="Combined-Shape-Copy" fill="#FFFFFF"></path>
        </g>
    </g>
</svg>