<?xml version="1.0" encoding="UTF-8"?>
<svg width="682px" height="256px" viewBox="0 0 682 256" version="1.1" xmlns="http://www.w3.org/2000/svg" xmlns:xlink="http://www.w3.org/1999/xlink">
    <!-- Generator: Sketch 49.3 (51167) - http://www.bohemiancoding.com/sketch -->
    <title>Untitled</title>
    <desc>Created with Sketch.</desc>
    <defs>
        <linearGradient x1="0%" y1="0%" x2="94.9779573%" y2="98.1126435%" id="linearGradient-1">
            <stop stop-color="#00D4FF" offset="0%"></stop>
            <stop stop-color="#3385FF" offset="100%"></stop>
        </linearGradient>
    </defs>
    <g id="Page-1" stroke="none" stroke-width="1" fill="none" fill-rule="evenodd">
        <g id="简墨" transform="translate(8.000000, 8.000000)" fill-rule="nonzero">
            <rect id="Rectangle-2-Copy-4" fill="url(#linearGradient-1)" x="0" y="0" width="240" height="240" rx="72"></rect>
            <path d="M148,95.710449 C148,110.885905 148,145.649089 148,176 C148,178.209139 146.209139,180 144,180 L128.666667,180 C126.457528,180 124.666667,178.209139 124.666667,176 L124.666667,87.5 C124.666667,81.148725 119.443322,76 113,76 C106.556678,76 101.333333,81.148725 101.333333,87.5 L101,132 L101,145.424466 C101,164.463227 85.553824,179.897193 66.5,179.897193 C47.4461761,179.897193 32,164.463227 32,145.424466 L32,143.897193 C32,141.688054 33.790861,139.897193 36,139.897193 L51,139.897193 C53.209139,139.897193 55,141.688054 55,143.897193 L55,145.424466 C55,151.770719 60.148725,156.915375 66.5,156.915375 C72.851275,156.915375 78,151.770719 78,145.424466 L78,131.897193 L78,87.5 C78,68.446176 93.670034,53 113,53 C125.082646,53 135.735296,59.0350784 142.024763,68.213952 C146.360775,65.030392 152.9104,63 160,63 C178.553824,63 194,78.445424 194,97 L194,176 C194,178.209139 192.209139,180 190,180 L175,180 C172.790861,180 171,178.209139 171,176 L171,97 C171,91.147355 165.851275,85.99888 160,86 C153.148725,85.99888 148,91.147355 148,97 L148,95.710449 Z" id="Combined-Shape-Copy" fill="#FFFFFF"></path>
            <path d="M551.044009,35.7585147 C538.73607,35.7585147 528.758515,45.7360704 528.758515,58.0440093 C528.758515,70.3519482 538.73607,80.329504 551.044009,80.329504 L618.668959,80.329504 C630.976898,80.329504 640.954453,70.3519482 640.954453,58.0440093 C640.954453,45.7360704 630.976898,35.7585147 618.668959,35.7585147 L551.044009,35.7585147 Z M551.044009,25 L618.668959,25 C636.918661,25 651.712968,39.7943069 651.712968,58.0440093 C651.712968,76.2937117 636.918661,91.0880186 618.668959,91.0880186 L551.044009,91.0880186 C532.794307,91.0880186 518,76.2937117 518,58.0440093 C518,39.7943069 532.794307,25 551.044009,25 Z" id="Rectangle-4" fill="#000000"></path>
            <path d="M603.499352,166.031195 L603.499352,155.27268 L637.066678,155.27268 C640.911484,155.27268 644.028315,152.155849 644.028315,148.311042 C644.028315,144.466236 640.911484,141.349405 637.066678,141.349405 L535.674703,141.349405 C525.913233,141.349405 518,133.436172 518,123.674703 C518,113.913233 525.913233,106 535.674703,106 L637.112127,106 L637.112127,116.758515 L535.674703,116.758515 C531.854998,116.758515 528.758515,119.854998 528.758515,123.674703 C528.758515,127.494407 531.854998,130.590891 535.674703,130.590891 L637.066678,130.590891 C646.853247,130.590891 654.786829,138.524473 654.786829,148.311042 C654.786829,158.097612 646.853247,166.031195 637.066678,166.031195 L603.499352,166.031195 Z" id="Rectangle-5" fill="#000000"></path>
            <path d="M560.749701,156 L560.749701,166.758515 L516.779887,166.758515 C513.44888,166.758515 510.748564,169.458831 510.748564,172.789838 C510.748564,176.120846 513.44888,178.821163 516.779887,178.821163 L648.303859,178.821163 C658.065328,178.821163 665.978561,186.734396 665.978561,196.495865 C665.978561,206.257335 658.065328,214.170568 648.303859,214.170568 L490,214.170568 L490,203.412053 L648.303859,203.412053 C652.123563,203.412053 655.220047,200.31557 655.220047,196.495865 C655.220047,192.676161 652.123563,189.579677 648.303859,189.579677 L516.779887,189.579677 C507.507116,189.579677 499.990049,182.062611 499.990049,172.789838 C499.990049,163.517066 507.507116,156 516.779887,156 L560.749701,156 Z" id="Rectangle-5" fill="#000000"></path>
            <polygon id="Path-6" fill="#000000" points="579 50 589.758515 50 589.758515 206.766928 579 206.766928"></polygon>
            <polygon id="Path-6" fill="#000000" points="552 51 562.758515 51 562.758515 67.9062373 552 67.9062373"></polygon>
            <polygon id="Path-6-Copy" fill="#000000" points="608 51 618.758515 51 618.758515 67.9062373 608 67.9062373"></polygon>
            <path d="M459.703704,159.8 C459.703704,120.845516 428.048577,89.2666667 389,89.2666667 C349.951423,89.2666667 318.296296,120.845516 318.296296,159.8 L318.296296,215 L306,215 L306,159.8 C306,114.070823 343.160367,77 389,77 C434.839633,77 472,114.070823 472,159.8 L472,215 L427.434931,215 L427.434931,202.733333 L459.703704,202.733333 L459.703704,159.8 Z" id="Rectangle-3" fill="#000000"></path>
            <path d="M388,197 C367.565464,197 351,180.434536 351,160 C351,139.565464 367.565464,123 388,123 C408.434536,123 425,139.565464 425,160 C425,180.434536 408.434536,197 388,197 Z M388,184.666667 C401.623024,184.666667 412.666667,173.623024 412.666667,160 C412.666667,146.376976 401.623024,135.333333 388,135.333333 C374.376976,135.333333 363.333333,146.376976 363.333333,160 C363.333333,173.623024 374.376976,184.666667 388,184.666667 Z" id="Oval-2" fill="#000000"></path>
            <path d="M471,61 L471,73 L427.6,73 C417.327504,73 409,64.9411255 409,55 C409,45.0588745 417.327504,37 427.6,37 L471,37 L471,49 L427.6,49 C424.175835,49 421.4,51.6862915 421.4,55 C421.4,58.3137085 424.175835,61 427.6,61 L471,61 Z" id="Rectangle-5" fill="#000000"></path>
            <path d="M369,61 L369,73 L325.6,73 C315.327504,73 307,64.9411255 307,55 C307,45.0588745 315.327504,37 325.6,37 L369,37 L369,49 L325.6,49 C322.175835,49 319.4,51.6862915 319.4,55 C319.4,58.3137085 322.175835,61 325.6,61 L369,61 Z" id="Rectangle-5" fill="#000000"></path>
            <circle id="Oval-3" fill="#000000" cx="388.5" cy="160.5" r="7.5"></circle>
        </g>
    </g>
</svg>