<?xml version="1.0" encoding="UTF-8"?>
<svg width="235px" height="124px" viewBox="0 0 235 124" version="1.1" xmlns="http://www.w3.org/2000/svg" xmlns:xlink="http://www.w3.org/1999/xlink">
    <!-- Generator: Sketch 49.3 (51167) - http://www.bohemiancoding.com/sketch -->
    <title>Untitled</title>
    <desc>Created with Sketch.</desc>
    <defs></defs>
    <g id="Page-1" stroke="none" stroke-width="1" fill="none" fill-rule="evenodd">
        <path d="M160,7 C151.991871,7 145.5,13.4918711 145.5,21.5 C145.5,29.5081289 151.991871,36 160,36 L204,36 C212.008129,36 218.5,29.5081289 218.5,21.5 C218.5,13.4918711 212.008129,7 204,7 L160,7 Z M160,0 L204,0 C215.874122,-2.22044605e-15 225.5,9.62587788 225.5,21.5 C225.5,33.3741221 215.874122,43 204,43 L160,43 C148.125878,43 138.5,33.3741221 138.5,21.5 C138.5,9.62587788 148.125878,2.22044605e-15 160,0 Z" id="Rectangle-4" fill="#000000" fill-rule="nonzero"></path>
        <path d="M194.129934,92.0591427 L194.129934,85.0591427 L215.970429,85.0591427 C218.472042,85.0591427 220.5,83.0311845 220.5,80.5295713 C220.5,78.0279582 218.472042,76 215.970429,76 L150,76 C143.648725,76 138.5,70.8512746 138.5,64.5 C138.5,58.1487254 143.648725,53 150,53 L216,53 L216,60 L150,60 C147.514719,60 145.5,62.0147186 145.5,64.5 C145.5,66.9852814 147.514719,69 150,69 L215.970429,69 C222.338035,69 227.5,74.1619649 227.5,80.5295713 C227.5,86.8971778 222.338035,92.0591427 215.970429,92.0591427 L194.129934,92.0591427 Z" id="Rectangle-5" fill="#000000" fill-rule="nonzero"></path>
        <path d="M188.966888,123 L188.966888,116 L217.575735,116 C219.743046,116 221.5,114.243046 221.5,112.075735 C221.5,109.908423 219.743046,108.151469 217.575735,108.151469 L132,108.151469 C125.648725,108.151469 120.5,103.002744 120.5,96.651469 C120.5,90.3001944 125.648725,85.151469 132,85.151469 L235,85.151469 L235,92.151469 L132,92.151469 C129.514719,92.151469 127.5,94.1661876 127.5,96.651469 C127.5,99.1367504 129.514719,101.151469 132,101.151469 L217.575735,101.151469 C223.60904,101.151469 228.5,106.042429 228.5,112.075735 C228.5,118.10904 223.60904,123 217.575735,123 L188.966888,123 Z" id="Rectangle-5" fill="#000000" fill-rule="nonzero" transform="translate(177.750000, 104.075735) rotate(180.000000) translate(-177.750000, -104.075735) "></path>
        <polygon id="Path-6" fill="#000000" fill-rule="nonzero" points="178.5 16.5 185.5 16.5 185.5 118.5 178.5 118.5"></polygon>
        <polygon id="Path-6" fill="#000000" fill-rule="nonzero" points="160.206543 16.6396484 167.206543 16.6396484 167.206543 27.6396484 160.206543 27.6396484"></polygon>
        <polygon id="Path-6-Copy" fill="#000000" fill-rule="nonzero" points="197.206543 16.6396484 204.206543 16.6396484 204.206543 27.6396484 197.206543 27.6396484"></polygon>
        <path d="M100,87.5 C100,62.0949015 79.4050985,41.5 54,41.5 C28.5949015,41.5 8,62.0949015 8,87.5 L8,123.5 L0,123.5 L0,87.5 C0,57.6766235 24.1766235,33.5 54,33.5 C83.8233765,33.5 108,57.6766235 108,87.5 L108,123.5 L79.0058594,123.5 L79.0058594,115.5 L100,115.5 L100,87.5 Z" id="Rectangle-3" fill="#000000" fill-rule="nonzero"></path>
        <path d="M54,111.5 C40.745166,111.5 30,100.754834 30,87.5 C30,74.245166 40.745166,63.5 54,63.5 C67.254834,63.5 78,74.245166 78,87.5 C78,100.754834 67.254834,111.5 54,111.5 Z M54,103.5 C62.836556,103.5 70,96.336556 70,87.5 C70,78.663444 62.836556,71.5 54,71.5 C45.163444,71.5 38,78.663444 38,87.5 C38,96.336556 45.163444,103.5 54,103.5 Z" id="Oval-2" fill="#000000" fill-rule="nonzero"></path>
        <path d="M107,23.5 L107,31.5 L79,31.5 C72.372583,31.5 67,26.127417 67,19.5 C67,12.872583 72.372583,7.5 79,7.5 L107,7.5 L107,15.5 L79,15.5 C76.790861,15.5 75,17.290861 75,19.5 C75,21.709139 76.790861,23.5 79,23.5 L107,23.5 Z" id="Rectangle-5" fill="#000000" fill-rule="nonzero"></path>
        <path d="M41,23.5 L41,31.5 L13,31.5 C6.372583,31.5 1,26.127417 1,19.5 C1,12.872583 6.372583,7.5 13,7.5 L41,7.5 L41,15.5 L13,15.5 C10.790861,15.5 9,17.290861 9,19.5 C9,21.709139 10.790861,23.5 13,23.5 L41,23.5 Z" id="Rectangle-5" fill="#000000" fill-rule="nonzero"></path>
        <circle id="Oval-3" fill="#000000" cx="54" cy="87.5" r="5"></circle>
    </g>
</svg>