<?xml version="1.0" standalone="no"?><!DOCTYPE svg PUBLIC "-//W3C//DTD SVG 1.1//EN" "http://www.w3.org/Graphics/SVG/1.1/DTD/svg11.dtd"><svg t="1502725991004" class="icon" style="" viewBox="0 0 1186 1024" version="1.1" xmlns="http://www.w3.org/2000/svg" p-id="6327" xmlns:xlink="http://www.w3.org/1999/xlink" width="148.25" height="128"><defs><style type="text/css"></style></defs><path d="M1111.100828 0.006427 73.903109 0.006427c-40.973729 0-73.913393 33.743071-73.913393 75.520206L-0.010284 948.02603c0 41.777135 33.743071 75.520206 73.913393 75.520206l1037.197718 0c40.973729 0 73.913393-33.743071 73.913393-75.520206l0-871.695991C1185.817627 33.749498 1152.074556 0.006427 1111.100828 0.006427zM1111.100828 948.02603 73.903109 948.02603 73.903109 724.679039l297.260384-294.850165 306.901261 313.328513c12.854503 16.068129 35.349884 13.65791 51.418012 1.606813l134.972282-125.331405 244.235559 256.286655c0.803406 0.803406 1.606813 1.606813 3.213626 2.410219L1111.100828 948.02603zM1111.100828 769.6698 893.377681 541.50237c-12.854503-13.65791-33.743071-14.461316-48.204387-3.213626L705.380574 662.816743 398.479312 352.701856c-6.427252-8.034064-16.068129-12.854503-26.512413-13.65791-10.444284 0-20.085161 3.213626-28.119226 10.444284l-270.747971 269.944565 0-543.102756 1037.197718 0L1110.297421 769.6698zM851.600546 379.214268c40.973729 0 73.913393-33.743071 73.913393-75.520206 0-41.777135-32.939664-75.520206-73.913393-75.520206S777.687154 261.916928 777.687154 303.694063C777.687154 345.471198 811.430224 379.214268 851.600546 379.214268z" p-id="6328" fill="#646464"></path></svg>