<?xml version="1.0" standalone="no"?><!DOCTYPE svg PUBLIC "-//W3C//DTD SVG 1.1//EN" "http://www.w3.org/Graphics/SVG/1.1/DTD/svg11.dtd"><svg t="1550805591299" class="icon" style="" viewBox="0 0 1024 1024" version="1.1" xmlns="http://www.w3.org/2000/svg" p-id="1996" xmlns:xlink="http://www.w3.org/1999/xlink" width="128" height="128"><defs><style type="text/css"></style></defs><path d="M873.530498 932.230923c-6.721075 0-13.480013-1.779529-19.551288-5.415336l-165.052127-98.836029c-56.353472 21.441335-116.319216 32.298614-178.51986 32.298614-244.954945 0-444.237687-172.322717-444.237687-384.131751S265.451256 92.01467 510.406201 92.01467c244.955968 0 444.237687 172.322717 444.237687 384.131751 0 93.451392-38.313607 181.840488-108.485807 251.64839l62.749136 150.610206c6.434549 15.427364 2.336208 33.276894-10.144034 44.271296C891.607202 928.992159 882.599038 932.230923 873.530498 932.230923zM692.237479 746.110969c6.795776 0 13.553691 1.823532 19.562545 5.414313l81.227999 48.638767-28.071336-67.384713c-6.471388-15.514345-2.286066-33.477462 10.342556-44.452421 66.160839-57.468876 102.59054-132.824121 102.59054-212.181517 0-169.047114-164.853605-306.573327-367.483582-306.573327S142.923642 307.098283 142.923642 476.146421c0 169.047114 164.852582 306.572304 367.482559 306.572304 58.652841 0 114.795513-11.285021 166.875658-33.546024C682.080142 747.127112 687.16495 746.110969 692.237479 746.110969z" p-id="1997" fill="#707070"></path><path d="M286.53955 479.806787A50.004 50.528 0 1 1 286.53955 480.830093Z" p-id="1998" fill="#707070"></path><path d="M452.84011 479.806787c0 28.554336 22.911826 51.705616 51.169403 51.705616 28.258601 0 51.170426-23.151279 51.170426-51.705616s-22.911826-51.705616-51.170426-51.705616C475.751936 428.101171 452.84011 451.252451 452.84011 479.806787z" p-id="1999" fill="#707070"></path><path d="M619.142717 479.806787A50.004 50.528 0 1 1 619.142717 480.830093Z" p-id="2000" fill="#707070"></path></svg>