<svg width="20" height="20" viewBox="0 0 20 20" version="1.1" xmlns="http://www.w3.org/2000/svg" xmlns:xlink="http://www.w3.org/1999/xlink">
    <g id="Page-1" stroke="none" stroke-width="1" fill="none" fill-rule="evenodd">
        <g id="crop" fill="#000000" fill-rule="nonzero">
            <path d="M19.5,15 L16.5,15 C16.2238576,15 16,14.7761424 16,14.5 C16,14.2238576 16.2238576,14 16.5,14 L19.5,14 C19.7761424,14 20,14.2238576 20,14.5 C20,14.7761424 19.7761424,15 19.5,15 Z M12.5,15 L5.5,15 C5.22385763,15 5,14.7761424 5,14.5 L5,7.5 C5,7.22385763 5.22385763,7 5.5,7 C5.77614237,7 6,7.22385763 6,7.5 L6,14 L12.5,14 C12.7761424,14 13,14.2238576 13,14.5 C13,14.7761424 12.7761424,15 12.5,15 Z M5.5,4 C5.22385763,4 5,3.77614237 5,3.5 L5,0.5 C5,0.223857625 5.22385763,5.68941454e-14 5.5,5.68434189e-14 C5.77614237,5.67926923e-14 6,0.223857625 6,0.5 L6,3.5 C6,3.77614237 5.77614237,4 5.5,4 Z" id="Shape"></path>
            <path d="M14.5,20 C14.2238576,20 14,19.7761424 14,19.5 L14,6 L0.5,6 C0.223857625,6 3.38176876e-17,5.77614237 0,5.5 C-3.38176876e-17,5.22385763 0.223857625,5 0.5,5 L14.5,5 C14.7761424,5 15,5.22385763 15,5.5 L15,19.5 C15,19.7761424 14.7761424,20 14.5,20 Z" id="Shape"></path>
        </g>
    </g>
</svg>