<svg width="20" height="20" viewBox="0 0 20 20" version="1.1" xmlns="http://www.w3.org/2000/svg" xmlns:xlink="http://www.w3.org/1999/xlink">
    <g id="Page-1" stroke="none" stroke-width="1" fill="none" fill-rule="evenodd">
        <g id="expand" transform="translate(2.000000, 2.000000)">
            <polygon id="Shape" fill="#000000" fill-rule="nonzero" points="11 0 16 0 16 5 15 5 15 1 11 1"></polygon>
            <polygon id="Shape" fill="#000000" fill-rule="nonzero" points="0 11 1 11 1 15 5 15 5 16 0 16"></polygon>
            <path d="M9,7 L15,1" id="Shape" stroke="#000000" stroke-width="1.1"></path>
            <path d="M1,15 L7,9" id="Shape" stroke="#000000" stroke-width="1.1"></path>
        </g>
        <g id="expand" transform="translate(10.000000, 10.000000) scale(1, -1) translate(-10.000000, -10.000000) translate(2.000000, 2.000000)">
            <polygon id="Shape" fill="#000000" fill-rule="nonzero" points="11 0 16 0 16 5 15 5 15 1 11 1"></polygon>
            <polygon id="Shape" fill="#000000" fill-rule="nonzero" points="0 11 1 11 1 15 5 15 5 16 0 16"></polygon>
            <path d="M9,7 L15,1" id="Shape" stroke="#000000" stroke-width="1.1"></path>
            <path d="M1,15 L7,9" id="Shape" stroke="#000000" stroke-width="1.1"></path>
        </g>
    </g>
</svg>