<svg width="20" height="20" viewBox="0 0 20 20" version="1.1" xmlns="http://www.w3.org/2000/svg" xmlns:xlink="http://www.w3.org/1999/xlink">
    <g id="Page-1" stroke="none" stroke-width="1" fill="none" fill-rule="evenodd">
        <g id="二维码" fill="#000000" fill-rule="nonzero">
            <path d="M0.0221259933,9.41313416 L9.41530459,9.41313416 L9.41530459,0.0199782908 L0.0221259933,0.0199782908 L0.0221259933,9.41313416 Z M2.37043769,2.36826726 L7.06701563,2.36826726 L7.06701563,7.06484519 L2.37043769,7.06484519 L2.37043769,2.36826726 Z M10.5894604,0.0199782908 L10.5894604,9.41315689 L19.982639,9.41315689 L19.982639,0.0199782908 L10.5894604,0.0199782908 Z M17.6343273,7.06484519 L12.9377494,7.06484519 L12.9377494,2.36826726 L17.6343273,2.36826726 L17.6343273,7.06484519 Z M3.54457081,5.89071208 L5.89285978,5.89071208 L5.89285978,3.54240038 L3.54457081,3.54240038 L3.54457081,5.89071208 Z M0.0221259933,19.9804686 L9.41530459,19.9804686 L9.41530459,10.58729 L0.0221259933,10.58729 L0.0221259933,19.9804686 Z M2.37043769,12.935579 L7.06701563,12.935579 L7.06701563,17.6321569 L2.37043769,17.6321569 L2.37043769,12.935579 Z M16.4601942,3.54240038 L14.1118825,3.54240038 L14.1118825,5.89068935 L16.4601942,5.89068935 L16.4601942,3.54240038 Z M10.5894604,19.9804686 L12.9377494,19.9804686 L12.9377494,17.6321796 L10.5894604,17.6321796 L10.5894604,19.9804686 Z M12.9377494,12.935579 L12.9377494,17.6321569 L15.2860384,17.6321569 L15.2860384,12.935579 L12.9377494,12.935579 Z M17.6343273,17.6321796 L15.2860384,17.6321796 L15.2860384,19.9804686 L19.9826163,19.9804686 L19.9826163,15.2838679 L17.6343273,15.2838679 L17.6343273,17.6321796 Z M17.6343273,12.935579 L19.9826163,12.935579 L19.9826163,10.58729 L17.6343273,10.58729 L17.6343273,12.935579 Z M10.5894604,10.58729 L10.5894604,12.935579 L12.9377494,12.935579 L12.9377494,10.58729 L10.5894604,10.58729 Z M3.54457081,16.4580238 L5.89285978,16.4580238 L5.89285978,14.1097348 L3.54457081,14.1097348 L3.54457081,16.4580238 Z" id="Shape"></path>
        </g>
    </g>
</svg>