<svg width="23" height="20" viewBox="0 0 23 20" version="1.1" xmlns="http://www.w3.org/2000/svg" xmlns:xlink="http://www.w3.org/1999/xlink">
    <g id="Page-1" stroke="none" stroke-width="1" fill="none" fill-rule="evenodd">
        <g id="微博" fill="#000000" fill-rule="nonzero">
            <path d="M10.0337458,3.28188976 C8.77534308,2.968009 4.90222722,4.11986502 1.76053993,8.72728909 C-1.38114736,13.3347132 -0.0190776153,17.104162 3.54015748,18.8852193 C6.68184477,20.456063 12.8601125,20.456063 16.4193476,18.152351 C19.7712486,15.9537458 20.7128909,12.9157255 19.2471541,11.239775 C17.7799775,9.56526434 16.7346682,9.98425197 16.7346682,9.77403825 C16.6295613,9.56382452 17.6763105,7.47032621 16.6295613,6.52724409 C15.5828121,5.58704162 12.5447919,6.31847019 11.6031496,6.94767154 C11.184162,7.26155231 11.184162,6.73745782 11.2892688,6.31847019 C11.2892688,5.90092238 11.8133633,3.80598425 10.0337458,3.28188976 Z M16.5244544,3.38699663 C15.5828121,3.49210349 15.4777053,5.06294713 16.6295613,4.95784027 C17.7814173,4.85273341 18.8281665,5.48193476 18.304072,7.15644544 C18.0967379,7.68053993 19.2471541,8.41340832 19.7726884,7.57543307 C20.4004499,6.63235096 19.8763555,4.74762655 18.9347132,4.01475816 C17.8865242,3.38699663 17.1536558,3.28188976 16.5244544,3.38699663 Z M16.1069066,0.0365354331 C14.8499438,0.246749156 14.8499438,2.13147357 16.2120135,2.0263667 C17.5726434,1.92125984 19.0383802,1.92125984 20.1902362,3.38699663 C21.3420922,4.85273341 21.4471991,6.63235096 21.0282115,7.88931384 C20.6092238,9.04116985 22.2837345,9.66893138 22.7027222,8.51707537 C23.1217098,7.36521935 23.1217098,4.11986502 21.655973,2.44391451 C20.1902362,0.665736783 18.304072,-0.17223847 16.1069066,0.0365354331 Z M8.855973,9.14627672 C12.6254218,8.83239595 15.7671091,10.6134533 15.975883,13.2310461 C16.1860967,15.8471991 13.3582902,18.256018 9.58884139,18.6750056 C5.81939258,18.9903262 2.67770529,17.2092688 2.46893138,14.591676 C2.26015748,11.9740832 5.19019123,9.56526434 8.855973,9.14627672 Z" id="Shape"></path>
            <path d="M12.6254218,12.9157255 C12.207874,11.0310011 10.2180427,10.087919 8.22821147,10.6120135 C6.2383802,11.239775 4.98141732,13.1244994 5.40040495,14.904117 C5.81939258,16.7902812 7.80922385,17.7319235 9.79905512,17.2092688 C11.7874466,16.6851744 13.0444094,14.6967829 12.6254218,12.9157255 Z M8.22821147,15.7435321 C7.59901012,15.9537458 6.86614173,15.6384252 6.76103487,15.0106637 C6.65736783,14.4865692 7.07491564,13.8573678 7.70411699,13.6500337 C8.33187852,13.43982 9.06474691,13.7537008 9.16985377,14.3814623 C9.27496063,15.0106637 8.855973,15.6384252 8.22821147,15.7435321 Z M9.90272216,13.8588076 C9.58884139,13.8588076 9.37862767,13.7551406 9.27352081,13.5449269 C9.27352081,13.3347132 9.37862767,13.1259393 9.69250844,13.0208324 C10.007829,12.9157255 10.2166029,13.1259393 10.3217098,13.3347132 C10.4268166,13.5434871 10.2166029,13.8588076 9.90272216,13.8588076 Z" id="Shape"></path>
        </g>
    </g>
</svg>