<svg width="24" height="20" viewBox="0 0 24 20" version="1.1" xmlns="http://www.w3.org/2000/svg" xmlns:xlink="http://www.w3.org/1999/xlink">
    <g id="Page-1" stroke="none" stroke-width="1" fill="none" fill-rule="evenodd">
        <g id="weixin-o" fill="#000000" fill-rule="nonzero">
            <path d="M23.5222485,12.2710145 C23.5222485,10.7261595 22.8328164,9.23224336 21.5795428,8.06416084 C20.3092245,6.90014227 18.6863013,6.1940934 16.9686906,6.05822058 C16.9686906,6.03187285 16.9669341,6.00552513 16.9607864,5.97917741 C16.2318326,2.56890334 12.5738899,0 8.45398368,0 C3.79482738,0 0.00514603519,3.25833551 0.00514603519,7.25440738 C0.00514603519,9.38593845 1.08891585,11.3137138 3.13876898,12.8322211 L2.43440644,14.9488218 C2.38013191,15.1113941 2.42858241,15.2906611 2.55736248,15.4037592 C2.68797801,15.5143447 2.87155229,15.5374207 3.02547375,15.4626025 L5.70064626,14.1241379 L6.02121026,14.1891289 C6.85028539,14.3595109 7.56606531,14.5070582 8.45134892,14.5070582 C8.70780012,14.5070582 8.97215565,14.4965192 9.23826767,14.4728061 C9.32158998,14.4660946 9.40091107,14.4342436 9.46573639,14.3814674 C10.5020803,16.8590319 13.2317047,18.5189387 16.2897975,18.5189387 C17.0696902,18.5189387 17.8469482,18.3432872 18.6382582,18.1448011 L20.6933809,19.2689707 C20.8438818,19.3532606 21.0305504,19.3373568 21.1646229,19.2288219 C21.2986955,19.1202868 21.3531187,18.9410212 21.3020134,18.7762682 L20.7838414,17.0513704 C22.5491391,15.6408887 23.5222485,13.9440952 23.5222485,12.2710145 Z M19.8836274,17.0144835 L20.1883828,18.0288711 L18.8938312,17.3201172 C18.7997418,17.2684607 18.6894914,17.2546402 18.5855628,17.2814739 C17.8302613,17.4720558 17.0486121,17.6705419 16.2836498,17.6705419 C12.7530544,17.6705419 9.88115219,15.2483075 9.8811522,12.2710145 C9.8811522,9.2937214 12.7548109,6.87236534 16.2897975,6.87236534 C19.7527671,6.87236534 22.6782429,9.34378208 22.6782429,12.2701362 C22.6782429,13.7526349 21.7411421,15.2728988 20.0390791,16.5507635 C19.895208,16.6570918 19.833108,16.8419884 19.8836274,17.0136053 L19.8836274,17.0144835 Z M4.04161774,12.8049951 C4.10175765,12.6270675 4.03693704,12.4308151 3.88265313,12.32371 C1.87319985,10.9228892 0.852664579,9.21731299 0.852664579,7.25616387 C0.852664579,3.72644678 4.26293865,0.857179358 8.45398368,0.857179376 C12.1233438,0.857179376 15.3904618,3.07741446 16.1009722,6.03362938 C12.1979956,6.11794211 9.03451193,8.90465332 9.03451191,12.2718927 C9.03714668,12.7285867 9.09686819,13.1844024 9.21367646,13.6261659 L9.16712881,13.6261659 C8.92998294,13.6469172 8.69203556,13.6571735 8.45398368,13.6569049 C7.64598673,13.6569049 6.96885015,13.517262 6.18456615,13.3547844 L5.72611572,13.2616891 C5.63380794,13.242678 5.53777745,13.2556886 5.45385588,13.2985759 L3.56823692,14.247094 L4.042496,12.8049951 L4.04161774,12.8049951 Z" id="Shape"></path>
            <path d="M4.59052871,5.49613576 C4.59052871,6.15434624 5.12411373,6.68793126 5.7823242,6.68793126 C6.44053468,6.68793126 6.97411971,6.15434624 6.97411971,5.49613576 C6.97411971,4.83792528 6.44053468,4.30434026 5.7823242,4.30434026 C5.12411373,4.30434026 4.59052871,4.83792528 4.59052871,5.49613576 Z M10.2069857,5.49613576 C10.1952188,5.92947893 10.4196813,6.33503665 10.7931291,6.55517644 C11.1665769,6.77531621 11.6301073,6.77531621 12.0035552,6.55517644 C12.3770029,6.33503665 12.6014654,5.92947893 12.5896985,5.49613576 C12.5721741,4.85076295 12.0439528,4.33669027 11.3983421,4.33669027 C10.7527314,4.33669027 10.2245102,4.85076295 10.2069857,5.49613576 Z M13.0455141,11.454235 C13.0344367,11.8378562 13.2327689,12.1971742 13.5632713,12.3922542 C13.8937738,12.5873341 14.3041944,12.5873341 14.6346968,12.3922542 C14.9651993,12.1971742 15.1635315,11.8378562 15.152454,11.454235 C15.1359954,10.8842609 14.6691958,10.430746 14.0989841,10.430746 C13.5287725,10.430746 13.0619728,10.8842609 13.0455141,11.454235 Z M17.4139672,11.454235 C17.3981799,11.8407054 17.595362,12.2047708 17.9276714,12.4027078 C18.2599808,12.6006447 18.6740152,12.6006447 19.0063246,12.4027078 C19.338634,12.2047708 19.5358162,11.8407054 19.5200288,11.454235 C19.4969545,10.8893817 19.0323225,10.4433424 18.466998,10.4433424 C17.9016736,10.4433424 17.4370415,10.8893817 17.4139672,11.454235 Z" id="Shape"></path>
        </g>
    </g>
</svg>