<svg width="20" height="20" viewBox="0 0 20 20" version="1.1" xmlns="http://www.w3.org/2000/svg" xmlns:xlink="http://www.w3.org/1999/xlink">
    <g id="Page-1" stroke="none" stroke-width="1" fill="none" fill-rule="evenodd">
        <g id="wxapp-o" fill="#000000" fill-rule="nonzero">
            <path d="M12.0791534,4.90666667 C13.613545,4.90666667 14.8622222,6.06010582 14.8622222,7.48867725 C14.8622222,7.93312169 14.7352381,8.36698413 14.5024339,8.75851852 C14.1532275,9.32994709 13.592381,9.75322751 12.9151323,9.95428571 C12.7352381,10.0071958 12.597672,10.0283598 12.4706878,10.0283598 C12.1743915,10.0283598 11.9415873,9.79555556 11.9415873,9.49925926 C11.9415873,9.20296296 12.1743915,8.97015873 12.4706878,8.97015873 C12.4918519,8.97015873 12.5341799,8.97015873 12.5870899,8.94899471 C13.0421164,8.82201058 13.4019048,8.55746032 13.602963,8.20825397 C13.7405291,7.98603175 13.8040212,7.7426455 13.8040212,7.48867725 C13.8040212,6.65269841 13.0315344,5.96486772 12.0897354,5.96486772 C11.7616931,5.96486772 11.4442328,6.04952381 11.1585185,6.20825397 C10.661164,6.49396825 10.3648677,6.97015873 10.3648677,7.48867725 L10.3648677,11.9225397 C10.3648677,12.8220106 9.86751323,13.6474074 9.0421164,14.1130159 C8.59767196,14.3669841 8.10031746,14.4939683 7.59238095,14.4939683 C6.05798942,14.4939683 4.80931217,13.3405291 4.80931217,11.9119577 C4.80931217,11.4675132 4.9362963,11.0336508 5.16910053,10.6421164 C5.51830688,10.0706878 6.07915344,9.64740741 6.75640212,9.44634921 C6.94687831,9.39343915 7.07386243,9.37227513 7.20084656,9.37227513 C7.49714286,9.37227513 7.72994709,9.60507937 7.72994709,9.90137566 C7.72994709,10.197672 7.49714286,10.4304762 7.20084656,10.4304762 C7.17968254,10.4304762 7.1373545,10.4304762 7.08444444,10.4516402 C6.62941799,10.5892063 6.26962963,10.8537566 6.06857143,11.192381 C5.93100529,11.4146032 5.86751323,11.6579894 5.86751323,11.9119577 C5.86751323,12.7479365 6.64,13.4357672 7.59238095,13.4357672 C7.92042328,13.4357672 8.2378836,13.3511111 8.52359788,13.192381 C9.02095238,12.9066667 9.31724868,12.4304762 9.31724868,11.9119577 L9.31724868,7.48867725 C9.31724868,6.58920635 9.81460317,5.76380952 10.64,5.29820106 C11.0738624,5.03365079 11.5712169,4.90666667 12.0791534,4.90666667 Z M1.31724868,9.66857143 C1.31724868,14.3458201 5.10560847,18.1341799 9.78285714,18.1341799 C14.4601058,18.1341799 18.2484656,14.3458201 18.2484656,9.66857143 C18.2484656,4.99132275 14.4601058,1.20296296 9.78285714,1.20296296 C5.10560847,1.20296296 1.31724868,4.99132275 1.31724868,9.66857143 Z M0.259047619,9.66857143 C0.259047619,4.40931217 4.52359788,0.144761905 9.78285714,0.144761905 C15.0421164,0.144761905 19.3066667,4.40931217 19.3066667,9.66857143 C19.3066667,14.9278307 15.0421164,19.192381 9.78285714,19.192381 C4.52359788,19.192381 0.259047619,14.9278307 0.259047619,9.66857143 Z" id="Shape"></path>
        </g>
    </g>
</svg>