<?xml version="1.0" standalone="no"?><!DOCTYPE svg PUBLIC "-//W3C//DTD SVG 1.1//EN" "http://www.w3.org/Graphics/SVG/1.1/DTD/svg11.dtd"><svg t="1517488277513" class="icon" style="" viewBox="0 0 1024 1024" version="1.1" xmlns="http://www.w3.org/2000/svg" p-id="3914" xmlns:xlink="http://www.w3.org/1999/xlink" width="256" height="256"><defs><style type="text/css"></style></defs><path d="M831.808 128 192.128 128C157.184 128 128 156.736 128 192.128l0 639.68C128 866.816 156.736 896 192.128 896l639.68 0C866.816 896 896 867.264 896 831.808L896 192.128C896 157.184 867.264 128 831.808 128zM832 832 192 832 192 192l640 0L832 832z" p-id="3915" fill="#0e94da"></path><path d="M478.784 652.032c9.408 9.408 22.976 11.52 34.432 6.656 11.456 4.544 25.152 2.496 34.176-6.656l136.64-136.64c12.416-12.416 12.032-32.32-0.448-44.8-12.096-12.096-32.512-12.672-44.8-0.448L513.152 595.904 387.456 470.208c-12.416-12.416-32.32-12.032-44.8 0.448-12.096 12.096-12.672 32.576-0.448 44.8L478.784 652.032z" p-id="3916" fill="#0e94da"></path></svg>