<?xml version="1.0" standalone="no"?><!DOCTYPE svg PUBLIC "-//W3C//DTD SVG 1.1//EN" "http://www.w3.org/Graphics/SVG/1.1/DTD/svg11.dtd"><svg t="1517302249215" class="icon" style="" viewBox="0 0 1080 1024" version="1.1" xmlns="http://www.w3.org/2000/svg" p-id="667" xmlns:xlink="http://www.w3.org/1999/xlink" width="270" height="256"><defs><style type="text/css"></style></defs><path d="M503.132842 132.995582C348.175552 151.752577 228.093078 284.46539 228.093078 437.254786c0 12.34757-0.377025 16.683358-1.319588 16.966127-0.75405 0.188513-6.786451 1.696613-13.290132 3.298969-122.250368 30.162003-174.185567 179.65243-98.02651 281.637703 16.589102 22.244477 47.88218 47.599411 68.335788 55.328424 2.167894 0.848306 2.921944 1.696613 2.544919 3.0162-0.282769 1.036819-0.848306 3.864507-1.225331 6.220913-0.659794 4.147275-2.167894 11.216495-13.007364 60.324006-2.733432 12.253314-4.995582 22.810015-4.995582 23.469809 0 0.659794 2.827688 1.790869 6.220913 2.544919 3.393225 0.75405 6.974963 1.885125 8.011782 2.544919 3.581738 2.26215 4.807069 0.094256 7.917526-14.515464 1.696613-8.011782 4.995582-22.810015 7.163476-32.989691 2.26215-10.179676 5.184094-23.752577 6.597938-30.162003 2.356406-10.83947 2.733432-11.687776 4.807069-11.122239 34.686303 10.08542 76.253314 9.519882 107.734905-1.5081 8.200295-2.921944 7.917526-2.921944 8.765832 1.790869 0.377025 2.26215 4.901325 22.998527 9.896907 46.091311 5.089838 23.092784 9.142857 42.226804 9.142857 42.603829 0 0.942563 3.77025 0.75405 4.995582-0.282769 0.565538-0.471281 4.053019-1.602356 7.823269-2.356406 3.77025-0.75405 6.786451-1.602356 6.786451-1.885125s-0.942563-4.241532-2.073638-8.765832c-1.131075-4.618557-3.864507-16.87187-6.126657-27.334316-2.26215-10.462445-6.126657-28.276878-8.671575-39.587628l-4.618557-20.642121 3.393225-2.073638c26.674521-16.212077 44.394698-31.481591 58.438881-50.521355 7.917526-10.745214 13.007364-14.421208 11.499264-8.483063-4.807069 19.134021-34.309278 158.727541-33.649485 159.293078 1.413844 1.225331 29.596465 6.974963 30.350515 6.220913 0.565538-0.565538 34.215022-152.789396 34.215023-154.95729 0-0.471281 4.053019 0.282769 8.954344 1.696613 59.4757 16.966127 127.811487 15.081001 187.569956-4.995582 5.278351-1.790869 9.614138-3.110457 9.708395-2.921944 0.094256 0.188513 0.75405 2.921944 1.5081 6.220913 15.36377 71.257732 33.837997 154.391753 34.309278 154.95729 0.75405 0.75405 29.030928-4.995582 30.350516-6.220913 0.471281-0.471281-7.351988-38.456554-17.343152-84.547865-19.228277-88.506627-19.888071-92.559647-11.876289-79.458026 14.986745 24.600884 36.100147 44.488954 67.675994 63.717231l3.393226 2.073638-4.618557 20.642121c-2.544919 11.310751-6.503682 29.21944-8.671576 39.587628-2.26215 10.462445-4.995582 22.715758-6.126657 27.334316-1.131075 4.618557-2.073638 8.57732-2.073637 8.765832s3.0162 1.131075 6.78645 1.885125 7.257732 1.790869 7.82327 2.356406c1.131075 1.036819 4.995582 1.319588 4.995582 0.282769 0-0.377025 4.147275-19.511046 9.142857-42.603829 5.089838-23.092784 9.519882-43.829161 9.896907-46.091311 0.848306-4.807069 0.565538-4.712813 8.765832-1.790869 31.481591 11.027982 73.048601 11.59352 107.734904 1.5081 2.073638-0.565538 2.450663 0.188513 4.80707 11.122239 1.413844 6.503682 4.335788 20.076583 6.597938 30.162003 2.26215 10.179676 5.466863 24.977909 7.163475 32.989691 3.204713 14.703976 4.335788 16.777614 7.917526 14.515464 1.036819-0.659794 4.618557-1.790869 8.011782-2.544919 3.393225-0.75405 6.220913-1.885125 6.220913-2.544919 0-0.659794-2.26215-11.122239-4.995581-23.469809-10.933726-49.013255-12.441826-56.082474-13.007364-60.324006-0.377025-2.356406-0.848306-5.184094-1.225332-6.220913-0.377025-1.319588 0.377025-2.26215 2.544919-3.0162 1.696613-0.659794 7.446244-3.675994 12.724595-6.692195 113.767305-64.942563 123.4757-223.481591 18.474227-301.148748-27.145803-20.076583-64-34.02651-89.920471-34.026509h-6.220913v-16.023564C852.823564 255.811487 686.084242 110.939617 503.132842 132.995582m67.298969 32.141384c192.282769 19.416789 307.369661 228.948454 220.74816 402.002946C693.624742 761.967599 419.339028 775.540501 303.309573 591.36377 179.362592 394.745214 337.995876 141.667158 570.431811 165.136966M875.633579 474.95729c123.192931 25.826215 169.095729 180.029455 80.023564 269.195876-72.294551 72.483063-200.106038 57.684831-250.061856-28.936671l-2.921944-4.995582 9.519882-6.315169c76.34757-50.521355 128.377025-133.561119 138.650958-221.502209l1.319587-10.933726 7.82327 0.848306c4.147275 0.565538 11.310751 1.696613 15.646539 2.639175m-645.938145 5.089838c12.34757 97.649485 67.675994 182.008837 151.564065 231.587629 6.692194 3.958763 12.253314 7.446244 12.253314 7.729013 0 1.696613-13.478645 17.814433-21.490427 25.731959-69.184094 68.241532-185.213549 58.910162-241.861561-19.416789C64.087187 634.438881 109.707216 505.590574 218.290427 476.653903c11.027982-2.921944 10.650957-3.0162 11.405007 3.393225m200.200295 71.351988c-15.646539 9.519882-3.581738 39.210604 23.18704 57.402062 59.287187 40.153166 159.010309 32.706922 201.991163-14.892489 12.724595-14.138439 16.777614-32.612666 8.954345-40.247422-10.08542-9.708395-28.842415-3.204713-28.842415 9.991163-0.094256 17.248895-30.444772 36.100147-66.921944 41.56701-53.443299 8.011782-112.070692-14.892489-112.63623-44.111929-0.188513-9.425626-16.306333-15.458027-25.731959-9.708395m-232.81296 141.10162c-20.359352 8.294551 8.765832 40.153166 42.980854 47.12813 42.792342 8.765832 93.502209-11.782032 93.596465-37.891016 0-10.933726-17.908689-13.761414-20.076583-3.204713-0.282769 1.5081-0.848306 3.864507-1.131075 5.27835-1.225331 6.220913-12.818851 13.85567-27.805596 18.379971-26.95729 8.200295-69.561119-3.393225-72.483064-19.605302-1.5081-8.860088-7.82327-13.007364-15.081001-10.08542m577.413844-0.282768c-19.699558 7.163476 5.372607 38.173785 37.513991 46.468335 42.792342 11.027982 94.256259-7.729013 98.120766-35.817378 2.073638-14.798233-18.097202-15.175258-20.736377-0.377025-2.921944 16.212077-45.525773 27.805596-72.483064 19.605302-14.892489-4.5243-26.486009-12.159057-27.805596-18.379971-0.282769-1.413844-0.75405-3.77025-1.131075-5.27835-0.848306-4.618557-8.388807-8.011782-13.478645-6.220913M3.951694 0" p-id="668" fill="#0e94da"></path></svg>