<svg height="512pt" viewBox="0 -18 512.0005 512" width="512pt" xmlns="http://www.w3.org/2000/svg"><path d="m512 168.425781v166.839844c0 48.609375-38.808594 98.421875-83.519531 108.625-34.804688 8.101563-71.117188-2.398437-96.621094-27.90625-6.300781-6.003906-5.699219-16.203125.601563-21.90625 3.300781-3 41.707031-41.40625 41.707031-41.40625 5.703125-5.703125 15.003906-6.003906 20.707031-.300781 9.601562 9 26.105469 1.800781 26.105469-10.503906v-24.304688c0-22.203125-15.90625-40.808594-37.507813-44.410156l-29.109375-4.800782-16.804687 34.207032c-24.601563 48.613281-36.605469 100.523437-36.605469 159.335937 0 8.402344-6.601563 15.003907-15.003906 15.003907h-60.015625c-8.402344 0-15.003906-6.601563-15.003906-15.003907v-75.015625h-60.011719v75.015625c0 8.402344-6.601563 15.003907-15.003907 15.003907h-61.015624c-8.402344 0-15.003907-6.601563-15.003907-15.003907v-42.90625c0-28.207031-7.5-54.015625-21.304687-74.722656-40.207032-59.109375-38.808594-105.320313-38.5078128-120.324219 0-104.425781 80.3203128-188.746094 180.8437498-196.546875 4.796875-.296875 9.902344-.597656 15-.597656h173.441407c78.019531 0 142.632812 63.613281 142.632812 141.628906zm0 0" fill="#f4d7af"/><path d="m512 168.425781v166.839844c0 48.609375-38.808594 98.421875-83.519531 108.625-34.804688 8.101563-71.117188-2.398437-96.621094-27.90625-6.300781-6.003906-5.699219-16.203125.601563-21.90625 3.300781-3 41.707031-41.40625 41.707031-41.40625 5.703125-5.703125 15.003906-6.003906 20.707031-.300781 9.601562 9 26.105469 1.800781 26.105469-10.503906v-24.304688c0-22.203125-15.90625-40.808594-37.507813-44.410156l-29.109375-4.800782-16.804687 34.207032c-24.601563 48.613281-36.605469 100.523437-36.605469 159.335937 0 8.402344-6.601563 15.003907-15.003906 15.003907h-60.015625c-8.402344 0-15.003906-6.601563-15.003906-15.003907v-75.015625h-30.003907v-359.484375c4.796875-.296875 9.902344-.597656 15-.597656h173.441407c78.019531 0 142.632812 63.613281 142.632812 141.628906zm0 0" fill="#dabba6"/><path d="m421.042969 161.824219c0 8.289062-6.71875 15.003906-15.003907 15.003906-8.285156 0-15.003906-6.714844-15.003906-15.003906 0-8.285157 6.71875-15 15.003906-15 8.285157 0 15.003907 6.714843 15.003907 15zm0 0" fill="#714c2f"/><path d="m243.386719 260.050781-42.316407-64.820312c-30.371093-46.371094-39.355468-87.867188-26.710937-123.292969 17.539063-49.113281 69.464844-65.964844 71.664063-66.667969 49.816406-15.894531 84.746093 8.03125 103.542968 20.867188l4.617188 3.105469c5.699218 3.734374 8.160156 10.839843 6.007812 17.300781l-29.203125 87.621093c.058594 2.167969.175781 4.539063.292969 7.074219 1.453125 30.683594 4.164062 87.78125-68.65625 124.042969-6.914062 3.410156-15.109375 1.082031-19.238281-5.230469zm0 0" fill="#c89978"/></svg>