<?xml version="1.0" standalone="no"?><!DOCTYPE svg PUBLIC "-//W3C//DTD SVG 1.1//EN" "http://www.w3.org/Graphics/SVG/1.1/DTD/svg11.dtd"><svg t="1548486104734" class="icon" style="" viewBox="0 0 1024 1024" version="1.1" xmlns="http://www.w3.org/2000/svg" p-id="7267" xmlns:xlink="http://www.w3.org/1999/xlink" width="128" height="128"><defs><style type="text/css"></style></defs><path d="M256 447a30 30 0 0 1-21.2-51.22l255.85-255.61a30 30 0 0 1 42.41 0l256.13 255.59a30 30 0 0 1-42.38 42.48L511.86 203.78 277.2 438.22A29.9 29.9 0 0 1 256 447zM511.86 893.4a30 30 0 0 1-21.23-8.8L234.76 628.19a30 30 0 0 1 42.48-42.38L511.86 821l234.92-235.2a30 30 0 1 1 42.44 42.4L533.09 884.59a30 30 0 0 1-21.23 8.81z" p-id="7268" fill="#76839b"></path></svg>